<?xml version="1.0" encoding="utf-8"?>
<!-- Generator: Adobe Illustrator 28.0.0, SVG Export Plug-In . SVG Version: 6.00 Build 0)  -->
<svg version="1.1" id="Слой_1" xmlns="http://www.w3.org/2000/svg" xmlns:xlink="http://www.w3.org/1999/xlink" x="0px" y="0px"
	 viewBox="0 0 500 500" style="enable-background:new 0 0 500 500;" xml:space="preserve">
<style type="text/css">
	.st0{fill:#454CEE;}
</style>
<circle class="st0" cx="246.92" cy="333.78" r="27.98"/>
<g>
	<path class="st0" d="M356.24,138.23H297.3l-31.41,77.49c21.35,0.99,39.49,14.21,47.62,32.81l12.74-32.14l58.73,145.37h60.98
		L356.24,138.23z"/>
</g>
<path class="st0" d="M183.32,361.77H82.02c-15.45,0-27.98-12.53-27.98-27.98v0c0-15.45,12.53-27.98,27.98-27.98h101.3
	c15.45,0,27.98,12.53,27.98,27.98v0C211.3,349.24,198.78,361.77,183.32,361.77z"/>
<g>
	<path class="st0" d="M113.4,138.3c-32.78,0-59.36,26.58-59.36,59.36v26.46c0,32.78,27.93,59.49,60.71,59.49h134.74
		c21.9,0,39.66,17.76,39.66,39.66v5.61c0,5.59-1.18,10.89-3.27,15.71c-0.03,0.08,0.06,0.15,0.13,0.09
		c12.52-10.25,20.52-25.82,20.52-43.26V283.7c0-30.86-25.02-55.88-55.88-55.88l-125.12,0c-9.65,0-17.44-7.94-17.19-17.65
		c0.24-9.45,8.53-16.74,17.98-16.74h130.13l22.38-55.2L113.4,138.3z"/>
</g>
</svg>
